<svg xmlns="http://www.w3.org/2000/svg" width="1200" height="800" viewBox="0 0 1200 800" role="img" aria-labelledby="title description">
  <title id="title">FixEmbed Components V2 preview</title>
  <desc id="description">Four polished Discord Components V2 cards for X, Reddit, Instagram, and YouTube.</desc>

  <defs>
    <radialGradient id="background-glow" cx="50%" cy="8%" r="90%">
      <stop offset="0" stop-color="#4f46a8" stop-opacity=".28"/>
      <stop offset=".46" stop-color="#313338" stop-opacity="0"/>
      <stop offset="1" stop-color="#1e1f22" stop-opacity=".46"/>
    </radialGradient>
    <linearGradient id="x-media" x1="0" y1="0" x2="1" y2="1">
      <stop offset="0" stop-color="#082f49"/>
      <stop offset=".45" stop-color="#0369a1"/>
      <stop offset="1" stop-color="#22d3ee"/>
    </linearGradient>
    <linearGradient id="reddit-sky" x1="0" y1="0" x2="0" y2="1">
      <stop offset="0" stop-color="#17113a"/>
      <stop offset=".48" stop-color="#7c3aed"/>
      <stop offset="1" stop-color="#fb923c"/>
    </linearGradient>
    <linearGradient id="instagram-sky" x1="0" y1="0" x2="1" y2="1">
      <stop offset="0" stop-color="#312e81"/>
      <stop offset=".44" stop-color="#db2777"/>
      <stop offset="1" stop-color="#f59e0b"/>
    </linearGradient>
    <linearGradient id="youtube-media" x1="0" y1="0" x2="1" y2="1">
      <stop offset="0" stop-color="#111827"/>
      <stop offset=".55" stop-color="#312e81"/>
      <stop offset="1" stop-color="#ef4444"/>
    </linearGradient>
    <filter id="card-shadow" x="-25%" y="-20%" width="150%" height="160%">
      <feDropShadow dx="0" dy="16" stdDeviation="18" flood-color="#0b0c0f" flood-opacity=".5"/>
    </filter>
    <filter id="soft-glow" x="-100%" y="-100%" width="300%" height="300%">
      <feGaussianBlur stdDeviation="18"/>
    </filter>
    <clipPath id="x-photo"><rect x="47" y="304" width="254" height="264" rx="8"/></clipPath>
    <clipPath id="reddit-photo"><rect x="339" y="326" width="254" height="242" rx="8"/></clipPath>
    <clipPath id="instagram-photo"><rect x="631" y="284" width="254" height="284" rx="8"/></clipPath>
    <clipPath id="youtube-photo"><rect x="923" y="304" width="254" height="264" rx="8"/></clipPath>
  </defs>

  <rect width="1200" height="800" fill="#313338"/>
  <rect width="1200" height="800" fill="url(#background-glow)"/>
  <circle cx="155" cy="48" r="120" fill="#5865f2" opacity=".12" filter="url(#soft-glow)"/>
  <circle cx="1040" cy="714" r="170" fill="#eb459e" opacity=".08" filter="url(#soft-glow)"/>

  <image href="logo.png" x="31" y="24" width="58" height="58"/>
  <text x="102" y="48" fill="#f2f3f5" font-family="Arial, sans-serif" font-size="24" font-weight="700">FixEmbed</text>
  <rect x="218" y="29" width="50" height="23" rx="4" fill="#5865f2"/>
  <text x="243" y="46" fill="#ffffff" font-family="Arial, sans-serif" font-size="14" font-weight="700" text-anchor="middle">APP</text>
  <text x="278" y="48" fill="#949ba4" font-family="Arial, sans-serif" font-size="14">Today at 2:27 PM</text>
  <text x="102" y="73" fill="#dbdee1" font-family="Arial, sans-serif" font-size="16">Here’s what your links look like after FixEmbed.</text>

  <!-- X / Twitter -->
  <g filter="url(#card-shadow)">
    <rect x="35" y="112" width="278" height="624" rx="12" fill="#2b2d31" stroke="#3f4147"/>
    <path d="M47 113h-1a11 11 0 0 0-11 11v600a11 11 0 0 0 11 11h1z" fill="#1d9bf0"/>
  </g>
  <circle cx="75" cy="155" r="21" fill="#0f172a"/>
  <text x="75" y="162" fill="#ffffff" font-family="Arial, sans-serif" font-size="20" font-weight="700" text-anchor="middle">X</text>
  <text x="108" y="151" fill="#f2f3f5" font-family="Arial, sans-serif" font-size="17" font-weight="700">NASA</text>
  <text x="108" y="173" fill="#949ba4" font-family="Arial, sans-serif" font-size="13">@NASA · 2h</text>
  <text x="48" y="212" fill="#f2f3f5" font-family="Arial, sans-serif" font-size="18" font-weight="700">A new view of home</text>
  <text x="48" y="240" fill="#dbdee1" font-family="Arial, sans-serif" font-size="15">Auroras ripple over Earth as the</text>
  <text x="48" y="262" fill="#dbdee1" font-family="Arial, sans-serif" font-size="15">station crosses the night side.</text>
  <text x="48" y="286" fill="#00a8fc" font-family="Arial, sans-serif" font-size="14">View the original post ↗</text>
  <g clip-path="url(#x-photo)">
    <rect x="47" y="304" width="254" height="264" fill="url(#x-media)"/>
    <circle cx="254" cy="355" r="64" fill="#dbeafe" opacity=".95"/>
    <path d="M171 329c36 12 67 34 92 66-23 47-72 78-128 78-23 0-45-5-64-15 13-65 48-108 100-129z" fill="#0f3b66"/>
    <path d="M61 450c53-49 112-69 177-61 31 4 57 15 79 32" fill="none" stroke="#67e8f9" stroke-width="12" opacity=".8"/>
    <path d="M55 472c72-39 141-44 206-16" fill="none" stroke="#a7f3d0" stroke-width="6" opacity=".75"/>
    <circle cx="87" cy="343" r="2" fill="#fff"/><circle cx="137" cy="371" r="2" fill="#fff"/><circle cx="191" cy="322" r="1.5" fill="#fff"/>
  </g>
  <text x="48" y="600" fill="#b5bac1" font-family="Arial, sans-serif" font-size="13">♡  12.8K     ↻  3.1K     ◉  1.2M</text>
  <line x1="48" y1="622" x2="300" y2="622" stroke="#3f4147"/>
  <image href="logo.png" x="48" y="642" width="24" height="24"/>
  <text x="81" y="659" fill="#949ba4" font-family="Arial, sans-serif" font-size="13">FixEmbed · X · 2 hours ago</text>
  <rect x="48" y="686" width="252" height="35" rx="6" fill="#4e5058"/>
  <text x="174" y="709" fill="#f2f3f5" font-family="Arial, sans-serif" font-size="14" font-weight="700" text-anchor="middle">Open on X ↗</text>

  <!-- Reddit -->
  <g filter="url(#card-shadow)">
    <rect x="327" y="112" width="278" height="624" rx="12" fill="#2b2d31" stroke="#3f4147"/>
    <path d="M339 113h-1a11 11 0 0 0-11 11v600a11 11 0 0 0 11 11h1z" fill="#ff4500"/>
  </g>
  <circle cx="367" cy="155" r="21" fill="#ff4500"/>
  <text x="367" y="162" fill="#ffffff" font-family="Arial, sans-serif" font-size="17" font-weight="700" text-anchor="middle">r/</text>
  <text x="400" y="151" fill="#f2f3f5" font-family="Arial, sans-serif" font-size="17" font-weight="700">r/SpacePorn</text>
  <text x="400" y="173" fill="#949ba4" font-family="Arial, sans-serif" font-size="13">u/astroframe · 4h</text>
  <text x="340" y="212" fill="#f2f3f5" font-family="Arial, sans-serif" font-size="18" font-weight="700">The Milky Way over</text>
  <text x="340" y="235" fill="#f2f3f5" font-family="Arial, sans-serif" font-size="18" font-weight="700">the desert tonight</text>
  <text x="340" y="266" fill="#dbdee1" font-family="Arial, sans-serif" font-size="15">A 12-frame panorama from our</text>
  <text x="340" y="288" fill="#dbdee1" font-family="Arial, sans-serif" font-size="15">dark-sky camp in southern Utah.</text>
  <text x="340" y="312" fill="#00a8fc" font-family="Arial, sans-serif" font-size="14">View the original post ↗</text>
  <g clip-path="url(#reddit-photo)">
    <rect x="339" y="326" width="254" height="242" fill="url(#reddit-sky)"/>
    <circle cx="407" cy="382" r="2" fill="#fff"/><circle cx="536" cy="365" r="2" fill="#fff"/><circle cx="480" cy="409" r="1.5" fill="#fff"/>
    <path d="M358 340c42 47 92 83 151 106" fill="none" stroke="#f5f3ff" stroke-width="19" opacity=".22"/>
    <path d="M339 523l61-83 43 55 49-88 61 94 40-49v116H339z" fill="#151827"/>
    <path d="M339 539l74-45 49 31 55-36 76 48v31H339z" fill="#090d18"/>
  </g>
  <text x="340" y="600" fill="#b5bac1" font-family="Arial, sans-serif" font-size="13">▲  18.4K      ◇  426 comments</text>
  <line x1="340" y1="622" x2="592" y2="622" stroke="#3f4147"/>
  <image href="logo.png" x="340" y="642" width="24" height="24"/>
  <text x="373" y="659" fill="#949ba4" font-family="Arial, sans-serif" font-size="13">FixEmbed · Reddit · 4 hours ago</text>
  <rect x="340" y="686" width="252" height="35" rx="6" fill="#4e5058"/>
  <text x="466" y="709" fill="#f2f3f5" font-family="Arial, sans-serif" font-size="14" font-weight="700" text-anchor="middle">Open on Reddit ↗</text>

  <!-- Instagram -->
  <g filter="url(#card-shadow)">
    <rect x="619" y="112" width="278" height="624" rx="12" fill="#2b2d31" stroke="#3f4147"/>
    <path d="M631 113h-1a11 11 0 0 0-11 11v600a11 11 0 0 0 11 11h1z" fill="#e1306c"/>
  </g>
  <circle cx="659" cy="155" r="21" fill="url(#instagram-sky)"/>
  <text x="659" y="162" fill="#ffffff" font-family="Arial, sans-serif" font-size="15" font-weight="700" text-anchor="middle">IG</text>
  <text x="692" y="151" fill="#f2f3f5" font-family="Arial, sans-serif" font-size="17" font-weight="700">fixembed</text>
  <text x="692" y="173" fill="#949ba4" font-family="Arial, sans-serif" font-size="13">Original audio · 38m</text>
  <text x="632" y="212" fill="#f2f3f5" font-family="Arial, sans-serif" font-size="18" font-weight="700">A better look for every link.</text>
  <text x="632" y="240" fill="#dbdee1" font-family="Arial, sans-serif" font-size="15">Rich media, clean details, and</text>
  <text x="632" y="262" fill="#dbdee1" font-family="Arial, sans-serif" font-size="15">the source is always one tap away.</text>
  <g clip-path="url(#instagram-photo)">
    <rect x="631" y="284" width="254" height="284" fill="url(#instagram-sky)"/>
    <circle cx="808" cy="354" r="82" fill="#fde68a" opacity=".35"/>
    <rect x="650" y="432" width="51" height="136" fill="#111827" opacity=".78"/>
    <rect x="711" y="390" width="62" height="178" fill="#1f2937" opacity=".82"/>
    <rect x="783" y="416" width="39" height="152" fill="#0f172a" opacity=".84"/>
    <rect x="832" y="374" width="38" height="194" fill="#27272a" opacity=".82"/>
    <g fill="#fef3c7" opacity=".88">
      <rect x="662" y="451" width="7" height="8"/><rect x="680" y="478" width="7" height="8"/>
      <rect x="725" y="416" width="8" height="8"/><rect x="749" y="451" width="8" height="8"/>
      <rect x="794" y="443" width="7" height="8"/><rect x="844" y="404" width="7" height="8"/>
    </g>
    <path d="M631 516c58-25 108-27 150-6 34 17 69 18 104 4v54H631z" fill="#09090b" opacity=".78"/>
  </g>
  <text x="632" y="600" fill="#b5bac1" font-family="Arial, sans-serif" font-size="13">♡  6,482       ◇  184 comments</text>
  <line x1="632" y1="622" x2="884" y2="622" stroke="#3f4147"/>
  <image href="logo.png" x="632" y="642" width="24" height="24"/>
  <text x="665" y="659" fill="#949ba4" font-family="Arial, sans-serif" font-size="13">FixEmbed · Instagram · 38m</text>
  <rect x="632" y="686" width="252" height="35" rx="6" fill="#4e5058"/>
  <text x="758" y="709" fill="#f2f3f5" font-family="Arial, sans-serif" font-size="14" font-weight="700" text-anchor="middle">Open on Instagram ↗</text>

  <!-- YouTube -->
  <g filter="url(#card-shadow)">
    <rect x="911" y="112" width="278" height="624" rx="12" fill="#2b2d31" stroke="#3f4147"/>
    <path d="M923 113h-1a11 11 0 0 0-11 11v600a11 11 0 0 0 11 11h1z" fill="#ff0033"/>
  </g>
  <circle cx="951" cy="155" r="21" fill="#ff0033"/>
  <path d="M944 144l18 11-18 11z" fill="#fff"/>
  <text x="984" y="151" fill="#f2f3f5" font-family="Arial, sans-serif" font-size="17" font-weight="700">Creator Studio</text>
  <text x="984" y="173" fill="#949ba4" font-family="Arial, sans-serif" font-size="13">1.2M subscribers · 1h</text>
  <text x="924" y="212" fill="#f2f3f5" font-family="Arial, sans-serif" font-size="18" font-weight="700">Inside the world’s most</text>
  <text x="924" y="235" fill="#f2f3f5" font-family="Arial, sans-serif" font-size="18" font-weight="700">advanced observatory</text>
  <text x="924" y="266" fill="#dbdee1" font-family="Arial, sans-serif" font-size="15">A tour behind the mirrors that</text>
  <text x="924" y="288" fill="#dbdee1" font-family="Arial, sans-serif" font-size="15">help us see the edge of time.</text>
  <g clip-path="url(#youtube-photo)">
    <rect x="923" y="304" width="254" height="264" fill="url(#youtube-media)"/>
    <circle cx="1050" cy="421" r="83" fill="#6366f1" opacity=".26"/>
    <ellipse cx="1050" cy="465" rx="91" ry="26" fill="none" stroke="#c4b5fd" stroke-width="9" opacity=".65"/>
    <path d="M1050 361v188M974 404l152 123M1126 404L974 527" stroke="#94a3b8" stroke-width="7" opacity=".7"/>
    <circle cx="1050" cy="421" r="36" fill="#111827" stroke="#cbd5e1" stroke-width="6"/>
    <circle cx="1050" cy="421" r="11" fill="#22d3ee"/>
    <circle cx="1050" cy="435" r="32" fill="#111827" opacity=".35"/>
    <circle cx="1050" cy="438" r="34" fill="#000" opacity=".42"/>
    <circle cx="1050" cy="438" r="29" fill="#ffffff" opacity=".92"/>
    <path d="M1042 421l25 17-25 17z" fill="#111827"/>
    <rect x="1107" y="530" width="57" height="25" rx="5" fill="#111827" opacity=".9"/>
    <text x="1135" y="548" fill="#fff" font-family="Arial, sans-serif" font-size="13" text-anchor="middle">12:48</text>
  </g>
  <text x="924" y="600" fill="#b5bac1" font-family="Arial, sans-serif" font-size="13">▷  842K views      ♡  48K</text>
  <line x1="924" y1="622" x2="1176" y2="622" stroke="#3f4147"/>
  <image href="logo.png" x="924" y="642" width="24" height="24"/>
  <text x="957" y="659" fill="#949ba4" font-family="Arial, sans-serif" font-size="13">FixEmbed · YouTube · 1 hour ago</text>
  <rect x="924" y="686" width="252" height="35" rx="6" fill="#4e5058"/>
  <text x="1050" y="709" fill="#f2f3f5" font-family="Arial, sans-serif" font-size="14" font-weight="700" text-anchor="middle">Watch on YouTube ↗</text>

  <rect x="0" y="0" width="1200" height="800" fill="none" stroke="#1e1f22" stroke-width="2"/>
</svg>
